# xmcd CD database file generated by Grip 2.95
# 
# Track frame offsets:
#       150
#       15302
#       31257
#       49705
#       61282
#       78945
#       96200
#       113522
#       130982
#       146022
#       162637
#       173077
#       189530
# 
# Disc length: 2758 seconds
# 
# Revision: 3
# Processed by: cddbd v1.4b41PL2 Copyright (c) Steve Scherf et al.
# Submitted via: Grip 2.95
# 
DISCID=a30ac40d
DTITLE=the mojos - mumbo gumbo
DYEAR=1900
DGENRE=
TTITLE0=swamp dog
TTITLE1=set a date
TTITLE2=someone else is steppin' in
TTITLE3=mon cherie
TTITLE4=gina's gumbo
TTITLE5=message from my heart
TTITLE6=all your love
TTITLE7=in the moonlight
TTITLE8=going down to big mary's
TTITLE9=tell the truth
TTITLE10=treats me fine
TTITLE11=now that it's over
TTITLE12=dear mike
EXTD=
EXTT0=
EXTT1=
EXTT2=
EXTT3=
EXTT4=
EXTT5=
EXTT6=
EXTT7=
EXTT8=
EXTT9=
EXTT10=
EXTT11=
EXTT12=
PLAYORDER=
